<svg preserveAspectRatio="none" width="83" height="128" overflow="visible" style="display: block;" viewBox="0 0 83.0041 128.008" fill="none" xmlns="http://www.w3.org/2000/svg">
<g id="Group 1">
<path id="Vector" d="M2.43838 91.1488C5.52149 93.1816 8.7699 95.0784 12.1712 96.8391C15.5767 98.5998 19.0979 100.134 22.7431 101.433C26.3841 102.736 30.1243 103.758 33.9555 104.505C37.7866 105.251 41.6922 105.622 45.6721 105.622C47.1971 105.622 48.6684 105.527 50.086 105.338C51.4994 105.148 52.7434 104.839 53.8097 104.41C54.876 103.981 55.7356 103.412 56.3886 102.694C57.0416 101.981 57.3681 101.115 57.3681 100.101C57.3681 99.1812 57.0994 98.2535 56.558 97.3174C56.0166 96.3814 54.9751 95.4825 53.4336 94.629C51.892 93.7713 49.7347 92.9713 46.9657 92.225C44.1967 91.4786 40.6011 90.8189 36.1831 90.2498C30.2649 89.487 25.1277 88.5056 20.7676 87.2975C16.4074 86.0934 12.7994 84.5512 9.93537 82.6792C7.0713 80.8072 4.93875 78.5516 3.54185 75.9168C2.14082 73.2819 1.44236 70.1563 1.44236 66.5359C1.44236 62.9155 2.23174 59.9755 3.80222 57.2293C5.37684 54.4831 7.64164 52.1575 10.6008 50.2524C13.5599 48.3474 17.1555 46.8877 21.3834 45.8733C25.6154 44.859 30.3847 44.3518 35.6995 44.3518C36.2409 44.3518 36.8609 44.3683 37.5593 44.4013C38.2578 44.4342 38.8157 44.4796 39.229 44.5456L40.2787 33.0247H50.7762L49.5818 45.9764C51.6813 46.3558 53.7188 46.8011 55.6901 47.3083C57.6615 47.8155 59.4593 48.3392 61.0835 48.8793L70.4361 43.7374H76.9743V66.5895C73.5688 64.5897 70.1427 62.8289 66.6918 61.3033C63.2408 59.7817 59.8188 58.5034 56.4299 57.4726C53.041 56.4417 49.7306 55.6624 46.5028 55.1387C43.2751 54.615 40.1961 54.3511 37.27 54.3511C35.3607 54.3511 33.6373 54.4955 32.0916 54.78C30.5459 55.0645 29.244 55.448 28.1778 55.9222C27.1115 56.3964 26.2932 56.9613 25.7187 57.6128C25.1442 58.2643 24.8591 58.9529 24.8591 59.6828C24.8591 60.7301 25.1442 61.6744 25.7187 62.5156C26.2932 63.3567 27.4049 64.1443 29.0581 64.8742C30.7112 65.604 33.0339 66.3091 36.026 66.9936C39.0141 67.6781 42.9279 68.4162 47.7633 69.2079C50.9746 69.7481 54.0453 70.3212 56.9754 70.9233C59.9015 71.5253 62.6209 72.2469 65.1337 73.0881C67.6465 73.9293 69.9113 74.9395 71.9322 76.1106C73.9532 77.2857 75.6766 78.696 77.1107 80.3495C78.5406 81.9988 79.6483 83.9369 80.4294 86.1594C81.2063 88.3819 81.599 90.9673 81.599 93.9197C81.599 97.8576 80.6443 101.235 78.7349 104.059C76.8255 106.884 74.2508 109.201 71.0023 111.011C67.7539 112.822 63.9806 114.153 59.6701 115.011C55.3595 115.869 50.8175 116.298 46.0482 116.298H44.6885C44.2256 116.298 43.709 116.265 43.1387 116.203L42.0889 128.008H31.3022L32.6867 114.867C30.3971 114.393 28.1447 113.778 25.9336 113.032C23.7225 112.286 21.5652 111.391 19.4657 110.343L11.8323 115.106H2.43838V91.157V91.1488Z" fill="black"/>
<path id="Vector_2" d="M41.5021 0C18.5813 0 0 6.46556 0 14.4444C0 22.4233 18.5813 28.8889 41.5021 28.8889C64.4228 28.8889 83.0041 22.4233 83.0041 14.4444C83.0041 6.46556 64.4187 0 41.5021 0ZM41.5021 23.0006C25.3633 23.0006 12.2828 19.1699 12.2828 14.4403C12.2828 9.71071 25.3633 5.88416 41.5021 5.88416C57.6408 5.88416 70.7213 9.71484 70.7213 14.4444C70.7213 19.174 57.6408 23.0047 41.5021 23.0047V23.0006Z" fill="black"/>
</g>
</svg>
